<?xml version="1.0" encoding="utf-8"?>
<!-- Generator: Adobe Illustrator 19.0.1, SVG Export Plug-In . SVG Version: 6.00 Build 0)  -->
<svg version="1.1" id="Capa_1" xmlns="http://www.w3.org/2000/svg" xmlns:xlink="http://www.w3.org/1999/xlink" x="0px" y="0px"
	 viewBox="-115 239.6 363.3 363.3" style="enable-background:new -115 239.6 363.3 363.3;" xml:space="preserve">
<path d="M183.9,462.7c-5.6-6.7-11.9-12.7-18-18.5c-2.2-2.1-4.4-4.2-6.6-6.3c-6.2-6.1-6.5-8.4-1.5-15.3c3.4-4.8,7-9.5,10.5-14.2
	c3.2-4.2,6.5-8.5,9.6-12.9l0.6-0.9c6-8.3,12.2-16.9,15.5-27.3c0.9-2.7,1.8-6.8-0.3-10.1c-2.1-3.4-6.1-4.4-8.9-4.9
	c-1.4-0.2-2.8-0.3-4.1-0.3l-39.4,0l-0.3,0c-6,0-10,2.8-12.3,8.6c-2.2,5.5-4.6,11.4-7.4,17C116,388.8,109,401.6,99,412.3l-0.4,0.5
	c-1.2,1.3-2.5,2.7-3.5,2.7c-0.2,0-0.3,0-0.5-0.1c-2.1-0.8-3.5-5.9-3.4-8.2c0,0,0-0.1,0-0.1l0-45.5c0-0.2,0-0.3,0-0.5
	c-1-7.4-3.2-12-11.6-13.6c-0.2,0-0.5-0.1-0.7-0.1H37.8c-6.7,0-10.3,2.7-13.8,6.8c-0.9,1.1-2.9,3.3-1.9,6.1c1,2.8,4.1,3.4,5.2,3.6
	c5.1,1,8,4.1,8.8,9.6c1.4,9.5,1.6,19.7,0.6,31.9c-0.3,3.4-0.9,6-1.8,8.3c-0.2,0.5-1,2.2-1.8,2.2c-0.3,0-1-0.1-2.3-1
	c-3.2-2.2-5.5-5.3-8.2-9.1c-9.2-13-16.9-27.4-23.6-43.9c-2.5-6.1-7.1-9.5-13.1-9.6c-6.5-0.1-12.5-0.1-18.1-0.1
	c-6.2,0-11.9,0.1-17.5,0.2c-4.8,0.1-8.1,1.5-9.8,4.3c-1.7,2.7-1.6,6.4,0.3,10.7c15.8,35,30,60.5,46.3,82.6
	c11.4,15.5,22.8,26.1,36,33.7c13.9,7.9,29.4,11.8,47.5,11.8c2.1,0,4.2-0.1,6.3-0.2c10.5-0.5,14.4-4.3,14.9-14.5
	c0.2-5.2,0.8-10.7,3.4-15.4c1.6-2.9,3.1-2.9,3.6-2.9c1,0,2.1,0.4,3.4,1.3c2.3,1.5,4.2,3.5,5.9,5.2c1.5,1.7,3,3.3,4.5,5
	c3.2,3.6,6.6,7.4,10.1,10.9c7.6,7.8,16.1,11.2,25.7,10.5h36.1c0.1,0,0.2,0,0.2,0c3.6-0.2,6.7-2.2,8.5-5.5c2.3-4,2.2-9.1-0.1-13.7
	C190.3,470.8,186.9,466.4,183.9,462.7z"/>
<path d="M68,241.3c-99.6,0-180.3,80.7-180.3,180.3S-31.6,601.9,68,601.9s180.3-80.7,180.3-180.3S167.6,241.3,68,241.3z M68,573.7
	c-84,0-152.1-68.1-152.1-152.1S-16,269.5,68,269.5s152.1,68.1,152.1,152.1S152,573.7,68,573.7z"/>
</svg>
